<mxfile host="app.diagrams.net" agent="Mozilla/5.0 (Macintosh; Intel Mac OS X 10_15_7) AppleWebKit/537.36 (KHTML, like Gecko) Chrome/138.0.0.0 Safari/537.36" version="27.2.0" pages="3">
  <diagram name="第 1 页" id="FOzh4IWzmii-9WCR0G31">
    <mxGraphModel dx="673" dy="434" grid="1" gridSize="10" guides="1" tooltips="1" connect="1" arrows="1" fold="1" page="1" pageScale="1" pageWidth="827" pageHeight="1169" math="0" shadow="0">
      <root>
        <mxCell id="0" />
        <mxCell id="1" parent="0" />
        <mxCell id="Ofl7h55x0vACvlSZ26nz-1" style="rounded=0;orthogonalLoop=1;jettySize=auto;html=1;exitX=0;exitY=0.5;exitDx=0;exitDy=0;entryX=1;entryY=0.5;entryDx=0;entryDy=0;endArrow=none;startFill=0;endFill=1;dashed=1;dashPattern=1 2;" parent="1" source="Ofl7h55x0vACvlSZ26nz-7" target="Ofl7h55x0vACvlSZ26nz-8" edge="1">
          <mxGeometry relative="1" as="geometry" />
        </mxCell>
        <mxCell id="Ofl7h55x0vACvlSZ26nz-2" style="rounded=0;orthogonalLoop=1;jettySize=auto;html=1;entryX=0;entryY=0.5;entryDx=0;entryDy=0;endArrow=none;startFill=0;exitX=1;exitY=0.5;exitDx=0;exitDy=0;dashed=1;dashPattern=1 2;" parent="1" source="Ofl7h55x0vACvlSZ26nz-7" target="Ofl7h55x0vACvlSZ26nz-10" edge="1">
          <mxGeometry relative="1" as="geometry" />
        </mxCell>
        <mxCell id="Ofl7h55x0vACvlSZ26nz-3" style="rounded=0;orthogonalLoop=1;jettySize=auto;html=1;exitX=1;exitY=1;exitDx=0;exitDy=0;entryX=0;entryY=0;entryDx=0;entryDy=0;endArrow=none;startFill=0;dashed=1;dashPattern=1 2;" parent="1" source="Ofl7h55x0vACvlSZ26nz-7" target="Ofl7h55x0vACvlSZ26nz-11" edge="1">
          <mxGeometry relative="1" as="geometry" />
        </mxCell>
        <mxCell id="Ofl7h55x0vACvlSZ26nz-4" style="rounded=0;orthogonalLoop=1;jettySize=auto;html=1;entryX=1;entryY=0;entryDx=0;entryDy=0;endArrow=none;startFill=0;exitX=0;exitY=1;exitDx=0;exitDy=0;dashed=1;dashPattern=1 2;" parent="1" source="Ofl7h55x0vACvlSZ26nz-7" target="Ofl7h55x0vACvlSZ26nz-13" edge="1">
          <mxGeometry relative="1" as="geometry" />
        </mxCell>
        <mxCell id="Ofl7h55x0vACvlSZ26nz-5" style="rounded=0;orthogonalLoop=1;jettySize=auto;html=1;entryX=0.5;entryY=0;entryDx=0;entryDy=0;endArrow=none;startFill=0;exitX=0.5;exitY=1;exitDx=0;exitDy=0;dashed=1;dashPattern=1 2;" parent="1" source="Ofl7h55x0vACvlSZ26nz-7" target="Ofl7h55x0vACvlSZ26nz-12" edge="1">
          <mxGeometry relative="1" as="geometry" />
        </mxCell>
        <mxCell id="Ofl7h55x0vACvlSZ26nz-6" style="edgeStyle=orthogonalEdgeStyle;rounded=0;orthogonalLoop=1;jettySize=auto;html=1;exitX=0.5;exitY=0;exitDx=0;exitDy=0;entryX=0.5;entryY=1;entryDx=0;entryDy=0;" parent="1" source="Ofl7h55x0vACvlSZ26nz-7" target="Ofl7h55x0vACvlSZ26nz-15" edge="1">
          <mxGeometry relative="1" as="geometry" />
        </mxCell>
        <mxCell id="Ofl7h55x0vACvlSZ26nz-7" value="Server" style="ellipse;whiteSpace=wrap;html=1;fillColor=#dae8fc;strokeColor=#6c8ebf;" parent="1" vertex="1">
          <mxGeometry x="374" y="372.5" width="90" height="50" as="geometry" />
        </mxCell>
        <mxCell id="Ofl7h55x0vACvlSZ26nz-8" value="Broker" style="ellipse;whiteSpace=wrap;html=1;fillColor=#ffe6cc;strokeColor=#d79b00;" parent="1" vertex="1">
          <mxGeometry x="180" y="372.5" width="90" height="50" as="geometry" />
        </mxCell>
        <mxCell id="Ofl7h55x0vACvlSZ26nz-9" style="rounded=0;orthogonalLoop=1;jettySize=auto;html=1;exitX=1;exitY=0;exitDx=0;exitDy=0;entryX=0;entryY=1;entryDx=0;entryDy=0;endArrow=none;startFill=0;dashed=1;dashPattern=1 2;" parent="1" source="Ofl7h55x0vACvlSZ26nz-10" target="Ofl7h55x0vACvlSZ26nz-57" edge="1">
          <mxGeometry relative="1" as="geometry" />
        </mxCell>
        <mxCell id="Ofl7h55x0vACvlSZ26nz-10" value="Backend" style="ellipse;whiteSpace=wrap;html=1;fillColor=#f8cecc;strokeColor=#b85450;" parent="1" vertex="1">
          <mxGeometry x="550" y="372.5" width="90" height="50" as="geometry" />
        </mxCell>
        <mxCell id="Ofl7h55x0vACvlSZ26nz-11" value="Config" style="ellipse;whiteSpace=wrap;html=1;fillColor=#f5f5f5;strokeColor=#666666;fontColor=#333333;" parent="1" vertex="1">
          <mxGeometry x="500" y="482.5" width="90" height="50" as="geometry" />
        </mxCell>
        <mxCell id="Ofl7h55x0vACvlSZ26nz-12" value="Lock" style="ellipse;whiteSpace=wrap;html=1;fillColor=#d5e8d4;strokeColor=#82b366;" parent="1" vertex="1">
          <mxGeometry x="374" y="482.5" width="90" height="50" as="geometry" />
        </mxCell>
        <mxCell id="Ofl7h55x0vACvlSZ26nz-13" value="Scheduler" style="ellipse;whiteSpace=wrap;html=1;fillColor=#fff2cc;strokeColor=#d6b656;" parent="1" vertex="1">
          <mxGeometry x="250" y="482.5" width="90" height="50" as="geometry" />
        </mxCell>
        <mxCell id="Ofl7h55x0vACvlSZ26nz-14" style="edgeStyle=orthogonalEdgeStyle;rounded=0;orthogonalLoop=1;jettySize=auto;html=1;exitX=0.5;exitY=0;exitDx=0;exitDy=0;entryX=0.5;entryY=1;entryDx=0;entryDy=0;" parent="1" source="Ofl7h55x0vACvlSZ26nz-15" target="Ofl7h55x0vACvlSZ26nz-18" edge="1">
          <mxGeometry relative="1" as="geometry">
            <mxPoint x="418.5" y="240" as="targetPoint" />
          </mxGeometry>
        </mxCell>
        <mxCell id="Ofl7h55x0vACvlSZ26nz-15" value="SendTask" style="rounded=0;whiteSpace=wrap;html=1;fillColor=#dae8fc;strokeColor=#6C8EBF;" parent="1" vertex="1">
          <mxGeometry x="371" y="300" width="96" height="30" as="geometry" />
        </mxCell>
        <mxCell id="Ofl7h55x0vACvlSZ26nz-16" style="edgeStyle=orthogonalEdgeStyle;rounded=0;orthogonalLoop=1;jettySize=auto;html=1;exitX=1;exitY=0.5;exitDx=0;exitDy=0;entryX=0;entryY=0.5;entryDx=0;entryDy=0;shape=link;strokeColor=#AE4132;" parent="1" source="Ofl7h55x0vACvlSZ26nz-65" target="Ofl7h55x0vACvlSZ26nz-19" edge="1">
          <mxGeometry relative="1" as="geometry" />
        </mxCell>
        <mxCell id="Ofl7h55x0vACvlSZ26nz-17" style="edgeStyle=orthogonalEdgeStyle;rounded=0;orthogonalLoop=1;jettySize=auto;html=1;exitX=1;exitY=0.5;exitDx=0;exitDy=0;entryX=0;entryY=0.5;entryDx=0;entryDy=0;" parent="1" source="Ofl7h55x0vACvlSZ26nz-18" target="Ofl7h55x0vACvlSZ26nz-65" edge="1">
          <mxGeometry relative="1" as="geometry" />
        </mxCell>
        <mxCell id="Ofl7h55x0vACvlSZ26nz-67" style="rounded=0;orthogonalLoop=1;jettySize=auto;html=1;exitX=1;exitY=0;exitDx=0;exitDy=0;entryX=0.5;entryY=1;entryDx=0;entryDy=0;" parent="1" source="Ofl7h55x0vACvlSZ26nz-18" target="Ofl7h55x0vACvlSZ26nz-66" edge="1">
          <mxGeometry relative="1" as="geometry" />
        </mxCell>
        <mxCell id="Ofl7h55x0vACvlSZ26nz-18" value="AsyncResult" style="ellipse;whiteSpace=wrap;html=1;fillColor=#fad9d5;strokeColor=#ae4132;" parent="1" vertex="1">
          <mxGeometry x="374" y="185" width="90" height="50" as="geometry" />
        </mxCell>
        <mxCell id="Ofl7h55x0vACvlSZ26nz-19" value="" style="rounded=0;whiteSpace=wrap;html=1;fillColor=none;strokeColor=#AE4132;" parent="1" vertex="1">
          <mxGeometry x="570" y="110" width="250" height="200" as="geometry" />
        </mxCell>
        <mxCell id="Ofl7h55x0vACvlSZ26nz-20" style="edgeStyle=orthogonalEdgeStyle;rounded=0;orthogonalLoop=1;jettySize=auto;html=1;exitX=0.5;exitY=1;exitDx=0;exitDy=0;entryX=0.5;entryY=0;entryDx=0;entryDy=0;" parent="1" source="Ofl7h55x0vACvlSZ26nz-21" target="Ofl7h55x0vACvlSZ26nz-26" edge="1">
          <mxGeometry relative="1" as="geometry" />
        </mxCell>
        <mxCell id="Ofl7h55x0vACvlSZ26nz-21" value="Touch()" style="rounded=0;whiteSpace=wrap;html=1;fillColor=#fad9d5;strokeColor=#ae4132;fontSize=10;" parent="1" vertex="1">
          <mxGeometry x="710" y="120" width="95" height="30" as="geometry" />
        </mxCell>
        <mxCell id="Ofl7h55x0vACvlSZ26nz-22" style="edgeStyle=orthogonalEdgeStyle;rounded=0;orthogonalLoop=1;jettySize=auto;html=1;exitX=0;exitY=0.5;exitDx=0;exitDy=0;entryX=1;entryY=0.5;entryDx=0;entryDy=0;" parent="1" source="Ofl7h55x0vACvlSZ26nz-26" target="Ofl7h55x0vACvlSZ26nz-29" edge="1">
          <mxGeometry relative="1" as="geometry" />
        </mxCell>
        <mxCell id="Ofl7h55x0vACvlSZ26nz-23" value="yes" style="edgeLabel;html=1;align=center;verticalAlign=middle;resizable=0;points=[];" parent="Ofl7h55x0vACvlSZ26nz-22" vertex="1" connectable="0">
          <mxGeometry x="-0.3299" y="-1" relative="1" as="geometry">
            <mxPoint as="offset" />
          </mxGeometry>
        </mxCell>
        <mxCell id="Ofl7h55x0vACvlSZ26nz-24" style="edgeStyle=orthogonalEdgeStyle;rounded=0;orthogonalLoop=1;jettySize=auto;html=1;exitX=0.5;exitY=1;exitDx=0;exitDy=0;entryX=0.5;entryY=0;entryDx=0;entryDy=0;" parent="1" source="Ofl7h55x0vACvlSZ26nz-26" target="Ofl7h55x0vACvlSZ26nz-30" edge="1">
          <mxGeometry relative="1" as="geometry" />
        </mxCell>
        <mxCell id="Ofl7h55x0vACvlSZ26nz-25" value="no" style="edgeLabel;html=1;align=center;verticalAlign=middle;resizable=0;points=[];" parent="Ofl7h55x0vACvlSZ26nz-24" vertex="1" connectable="0">
          <mxGeometry x="-0.1714" y="-1" relative="1" as="geometry">
            <mxPoint as="offset" />
          </mxGeometry>
        </mxCell>
        <mxCell id="Ofl7h55x0vACvlSZ26nz-26" value="res==nil &amp;amp;&amp;amp;&lt;div&gt;err!=nil&lt;/div&gt;" style="rhombus;whiteSpace=wrap;html=1;fontSize=10;" parent="1" vertex="1">
          <mxGeometry x="712.5" y="192.5" width="90" height="40" as="geometry" />
        </mxCell>
        <mxCell id="Ofl7h55x0vACvlSZ26nz-27" style="edgeStyle=orthogonalEdgeStyle;rounded=0;orthogonalLoop=1;jettySize=auto;html=1;exitX=0.5;exitY=0;exitDx=0;exitDy=0;entryX=0;entryY=0.5;entryDx=0;entryDy=0;" parent="1" source="Ofl7h55x0vACvlSZ26nz-31" target="Ofl7h55x0vACvlSZ26nz-21" edge="1">
          <mxGeometry relative="1" as="geometry" />
        </mxCell>
        <mxCell id="Ofl7h55x0vACvlSZ26nz-28" style="edgeStyle=orthogonalEdgeStyle;rounded=0;orthogonalLoop=1;jettySize=auto;html=1;exitX=0.5;exitY=0;exitDx=0;exitDy=0;entryX=0.5;entryY=1;entryDx=0;entryDy=0;" parent="1" source="Ofl7h55x0vACvlSZ26nz-29" target="Ofl7h55x0vACvlSZ26nz-31" edge="1">
          <mxGeometry relative="1" as="geometry" />
        </mxCell>
        <mxCell id="Ofl7h55x0vACvlSZ26nz-29" value="任务还没执行完" style="rounded=0;whiteSpace=wrap;html=1;fontSize=10;" parent="1" vertex="1">
          <mxGeometry x="580" y="197.5" width="90" height="30" as="geometry" />
        </mxCell>
        <mxCell id="Ofl7h55x0vACvlSZ26nz-30" value="任务执行完了，或者出错了，返回" style="rounded=0;whiteSpace=wrap;html=1;fontSize=10;" parent="1" vertex="1">
          <mxGeometry x="706.25" y="270" width="102.5" height="30" as="geometry" />
        </mxCell>
        <mxCell id="Ofl7h55x0vACvlSZ26nz-31" value="time.Sleep(...)" style="rounded=0;whiteSpace=wrap;html=1;fontSize=10;" parent="1" vertex="1">
          <mxGeometry x="580" y="160" width="90" height="15" as="geometry" />
        </mxCell>
        <mxCell id="Ofl7h55x0vACvlSZ26nz-32" value="" style="rounded=0;whiteSpace=wrap;html=1;fillColor=none;strokeColor=#AE4132;" parent="1" vertex="1">
          <mxGeometry x="841.5" y="108.5" width="408.5" height="121.5" as="geometry" />
        </mxCell>
        <mxCell id="Ofl7h55x0vACvlSZ26nz-33" style="edgeStyle=orthogonalEdgeStyle;rounded=0;orthogonalLoop=1;jettySize=auto;html=1;exitX=1;exitY=0.5;exitDx=0;exitDy=0;entryX=0;entryY=0.5;entryDx=0;entryDy=0;" parent="1" source="Ofl7h55x0vACvlSZ26nz-37" target="Ofl7h55x0vACvlSZ26nz-46" edge="1">
          <mxGeometry relative="1" as="geometry">
            <Array as="points">
              <mxPoint x="970" y="173" />
              <mxPoint x="970" y="133" />
            </Array>
          </mxGeometry>
        </mxCell>
        <mxCell id="Ofl7h55x0vACvlSZ26nz-34" style="edgeStyle=orthogonalEdgeStyle;rounded=0;orthogonalLoop=1;jettySize=auto;html=1;exitX=1;exitY=0.5;exitDx=0;exitDy=0;entryX=0;entryY=0.5;entryDx=0;entryDy=0;" parent="1" source="Ofl7h55x0vACvlSZ26nz-37" target="Ofl7h55x0vACvlSZ26nz-40" edge="1">
          <mxGeometry relative="1" as="geometry" />
        </mxCell>
        <mxCell id="Ofl7h55x0vACvlSZ26nz-35" style="edgeStyle=orthogonalEdgeStyle;rounded=0;orthogonalLoop=1;jettySize=auto;html=1;exitX=1;exitY=0.5;exitDx=0;exitDy=0;entryX=0;entryY=0.5;entryDx=0;entryDy=0;" parent="1" source="Ofl7h55x0vACvlSZ26nz-37" target="Ofl7h55x0vACvlSZ26nz-43" edge="1">
          <mxGeometry relative="1" as="geometry">
            <Array as="points">
              <mxPoint x="970" y="173" />
              <mxPoint x="970" y="207" />
            </Array>
          </mxGeometry>
        </mxCell>
        <mxCell id="Ofl7h55x0vACvlSZ26nz-36" style="edgeStyle=orthogonalEdgeStyle;rounded=0;orthogonalLoop=1;jettySize=auto;html=1;exitX=0.5;exitY=1;exitDx=0;exitDy=0;shape=link;strokeColor=#AE4132;" parent="1" source="Ofl7h55x0vACvlSZ26nz-37" target="Ofl7h55x0vACvlSZ26nz-54" edge="1">
          <mxGeometry relative="1" as="geometry" />
        </mxCell>
        <mxCell id="Ofl7h55x0vACvlSZ26nz-37" value="GetState()" style="rounded=0;whiteSpace=wrap;html=1;fillColor=#fad9d5;strokeColor=#AE4132;fontSize=10;" parent="1" vertex="1">
          <mxGeometry x="851.5" y="157.5" width="60" height="30" as="geometry" />
        </mxCell>
        <mxCell id="Ofl7h55x0vACvlSZ26nz-38" style="edgeStyle=orthogonalEdgeStyle;rounded=0;orthogonalLoop=1;jettySize=auto;html=1;exitX=1;exitY=0.5;exitDx=0;exitDy=0;entryX=0;entryY=0.5;entryDx=0;entryDy=0;" parent="1" source="Ofl7h55x0vACvlSZ26nz-40" target="Ofl7h55x0vACvlSZ26nz-48" edge="1">
          <mxGeometry relative="1" as="geometry" />
        </mxCell>
        <mxCell id="Ofl7h55x0vACvlSZ26nz-39" value="return" style="edgeLabel;html=1;align=center;verticalAlign=middle;resizable=0;points=[];" parent="Ofl7h55x0vACvlSZ26nz-38" vertex="1" connectable="0">
          <mxGeometry x="-0.1286" y="-1" relative="1" as="geometry">
            <mxPoint as="offset" />
          </mxGeometry>
        </mxCell>
        <mxCell id="Ofl7h55x0vACvlSZ26nz-40" value="FAILURE" style="rounded=0;whiteSpace=wrap;html=1;fontSize=10;" parent="1" vertex="1">
          <mxGeometry x="990" y="162.5" width="60" height="20" as="geometry" />
        </mxCell>
        <mxCell id="Ofl7h55x0vACvlSZ26nz-41" style="edgeStyle=orthogonalEdgeStyle;rounded=0;orthogonalLoop=1;jettySize=auto;html=1;exitX=1;exitY=0.5;exitDx=0;exitDy=0;entryX=0;entryY=0.5;entryDx=0;entryDy=0;" parent="1" source="Ofl7h55x0vACvlSZ26nz-43" target="Ofl7h55x0vACvlSZ26nz-49" edge="1">
          <mxGeometry relative="1" as="geometry" />
        </mxCell>
        <mxCell id="Ofl7h55x0vACvlSZ26nz-42" value="return" style="edgeLabel;html=1;align=center;verticalAlign=middle;resizable=0;points=[];" parent="Ofl7h55x0vACvlSZ26nz-41" vertex="1" connectable="0">
          <mxGeometry x="0.0427" y="-2" relative="1" as="geometry">
            <mxPoint as="offset" />
          </mxGeometry>
        </mxCell>
        <mxCell id="Ofl7h55x0vACvlSZ26nz-43" value="SUCCESS" style="rounded=0;whiteSpace=wrap;html=1;fontSize=10;" parent="1" vertex="1">
          <mxGeometry x="990" y="197.5" width="60" height="20" as="geometry" />
        </mxCell>
        <mxCell id="Ofl7h55x0vACvlSZ26nz-44" style="edgeStyle=orthogonalEdgeStyle;rounded=0;orthogonalLoop=1;jettySize=auto;html=1;exitX=1;exitY=0.5;exitDx=0;exitDy=0;entryX=0;entryY=0.5;entryDx=0;entryDy=0;" parent="1" source="Ofl7h55x0vACvlSZ26nz-46" target="Ofl7h55x0vACvlSZ26nz-47" edge="1">
          <mxGeometry relative="1" as="geometry" />
        </mxCell>
        <mxCell id="Ofl7h55x0vACvlSZ26nz-45" value="return" style="edgeLabel;html=1;align=center;verticalAlign=middle;resizable=0;points=[];" parent="Ofl7h55x0vACvlSZ26nz-44" vertex="1" connectable="0">
          <mxGeometry x="0.0871" y="-1" relative="1" as="geometry">
            <mxPoint as="offset" />
          </mxGeometry>
        </mxCell>
        <mxCell id="Ofl7h55x0vACvlSZ26nz-46" value="未完成" style="rounded=0;whiteSpace=wrap;html=1;fontSize=10;" parent="1" vertex="1">
          <mxGeometry x="990" y="122.5" width="60" height="20" as="geometry" />
        </mxCell>
        <mxCell id="Ofl7h55x0vACvlSZ26nz-47" value="&lt;div&gt;nil, nil&lt;/div&gt;" style="rounded=0;whiteSpace=wrap;html=1;fontSize=10;" parent="1" vertex="1">
          <mxGeometry x="1134.25" y="122.5" width="60" height="20" as="geometry" />
        </mxCell>
        <mxCell id="Ofl7h55x0vACvlSZ26nz-48" value="&lt;span style=&quot;background-color: transparent; color: light-dark(rgb(0, 0, 0), rgb(255, 255, 255));&quot;&gt;nil, err&lt;/span&gt;" style="rounded=0;whiteSpace=wrap;html=1;fontSize=10;" parent="1" vertex="1">
          <mxGeometry x="1134.25" y="162.5" width="60" height="20" as="geometry" />
        </mxCell>
        <mxCell id="Ofl7h55x0vACvlSZ26nz-49" value="[]reflect.Value, err" style="rounded=0;whiteSpace=wrap;html=1;fontSize=10;" parent="1" vertex="1">
          <mxGeometry x="1134.25" y="195" width="101.5" height="22.5" as="geometry" />
        </mxCell>
        <mxCell id="Ofl7h55x0vACvlSZ26nz-51" value="死循环" style="text;html=1;align=center;verticalAlign=middle;resizable=0;points=[];autosize=1;strokeColor=none;fillColor=none;fontStyle=2;fontColor=#666666;" parent="1" vertex="1">
          <mxGeometry x="680" y="160" width="60" height="30" as="geometry" />
        </mxCell>
        <mxCell id="Ofl7h55x0vACvlSZ26nz-52" style="edgeStyle=orthogonalEdgeStyle;rounded=0;orthogonalLoop=1;jettySize=auto;html=1;exitX=0.381;exitY=-0.031;exitDx=0;exitDy=0;entryX=0.25;entryY=1;entryDx=0;entryDy=0;curved=1;exitPerimeter=0;dashed=1;dashPattern=1 2;" parent="1" source="Ofl7h55x0vACvlSZ26nz-54" target="Ofl7h55x0vACvlSZ26nz-37" edge="1">
          <mxGeometry relative="1" as="geometry" />
        </mxCell>
        <mxCell id="Ofl7h55x0vACvlSZ26nz-53" value="taskState" style="edgeLabel;html=1;align=center;verticalAlign=middle;resizable=0;points=[];fontSize=10;" parent="Ofl7h55x0vACvlSZ26nz-52" vertex="1" connectable="0">
          <mxGeometry x="-0.4006" relative="1" as="geometry">
            <mxPoint as="offset" />
          </mxGeometry>
        </mxCell>
        <mxCell id="Ofl7h55x0vACvlSZ26nz-54" value="GetState(UUID)" style="rounded=0;whiteSpace=wrap;html=1;fillColor=#f8cecc;strokeColor=#b85450;fontSize=11;" parent="1" vertex="1">
          <mxGeometry x="820" y="382.5" width="123" height="30" as="geometry" />
        </mxCell>
        <mxCell id="Ofl7h55x0vACvlSZ26nz-55" style="edgeStyle=orthogonalEdgeStyle;rounded=0;orthogonalLoop=1;jettySize=auto;html=1;entryX=0;entryY=0.5;entryDx=0;entryDy=0;" parent="1" source="Ofl7h55x0vACvlSZ26nz-10" target="Ofl7h55x0vACvlSZ26nz-54" edge="1">
          <mxGeometry relative="1" as="geometry" />
        </mxCell>
        <mxCell id="Ofl7h55x0vACvlSZ26nz-56" style="edgeStyle=orthogonalEdgeStyle;rounded=0;orthogonalLoop=1;jettySize=auto;html=1;exitX=1;exitY=0.5;exitDx=0;exitDy=0;entryX=0;entryY=0.5;entryDx=0;entryDy=0;" parent="1" source="Ofl7h55x0vACvlSZ26nz-57" target="Ofl7h55x0vACvlSZ26nz-60" edge="1">
          <mxGeometry relative="1" as="geometry" />
        </mxCell>
        <mxCell id="Ofl7h55x0vACvlSZ26nz-57" value="rclient" style="ellipse;whiteSpace=wrap;html=1;fillColor=#f8cecc;strokeColor=#b85450;" parent="1" vertex="1">
          <mxGeometry x="650" y="330" width="60" height="30" as="geometry" />
        </mxCell>
        <mxCell id="Ofl7h55x0vACvlSZ26nz-58" style="edgeStyle=orthogonalEdgeStyle;rounded=0;orthogonalLoop=1;jettySize=auto;html=1;exitX=1;exitY=0.5;exitDx=0;exitDy=0;entryX=0.25;entryY=0;entryDx=0;entryDy=0;dashed=1;dashPattern=1 2;curved=1;" parent="1" source="Ofl7h55x0vACvlSZ26nz-60" target="Ofl7h55x0vACvlSZ26nz-54" edge="1">
          <mxGeometry relative="1" as="geometry" />
        </mxCell>
        <mxCell id="Ofl7h55x0vACvlSZ26nz-59" value="taskState" style="edgeLabel;html=1;align=center;verticalAlign=middle;resizable=0;points=[];fontSize=10;" parent="Ofl7h55x0vACvlSZ26nz-58" vertex="1" connectable="0">
          <mxGeometry x="-0.6923" y="1" relative="1" as="geometry">
            <mxPoint x="20" y="11" as="offset" />
          </mxGeometry>
        </mxCell>
        <mxCell id="Ofl7h55x0vACvlSZ26nz-60" value="Get(ctx, UUID)" style="rounded=0;whiteSpace=wrap;html=1;fontSize=10;" parent="1" vertex="1">
          <mxGeometry x="730" y="335" width="80" height="20" as="geometry" />
        </mxCell>
        <mxCell id="Ofl7h55x0vACvlSZ26nz-61" value="UUID" style="shape=note;whiteSpace=wrap;html=1;backgroundOutline=1;darkOpacity=0.05;size=8;fontSize=8;" parent="1" vertex="1">
          <mxGeometry x="873" y="270" width="30" height="20" as="geometry" />
        </mxCell>
        <mxCell id="Ofl7h55x0vACvlSZ26nz-63" value="先刷新&amp;nbsp;&lt;span style=&quot;background-color: transparent; color: light-dark(rgb(0, 0, 0), rgb(255, 255, 255));&quot;&gt;taskState&lt;/span&gt;" style="text;html=1;align=center;verticalAlign=middle;resizable=0;points=[];autosize=1;strokeColor=none;fillColor=none;fontSize=10;" parent="1" vertex="1">
          <mxGeometry x="838" y="132.5" width="100" height="30" as="geometry" />
        </mxCell>
        <mxCell id="Ofl7h55x0vACvlSZ26nz-64" value="再检查" style="text;html=1;align=center;verticalAlign=middle;resizable=0;points=[];autosize=1;strokeColor=none;fillColor=none;fontSize=10;rotation=0;" parent="1" vertex="1">
          <mxGeometry x="920" y="152.5" width="50" height="30" as="geometry" />
        </mxCell>
        <mxCell id="Ofl7h55x0vACvlSZ26nz-65" value="Get" style="rounded=0;whiteSpace=wrap;html=1;fillColor=#fad9d5;strokeColor=#ae4132;" parent="1" vertex="1">
          <mxGeometry x="510" y="195" width="36" height="30" as="geometry" />
        </mxCell>
        <mxCell id="Ofl7h55x0vACvlSZ26nz-66" value="GetWithTimeout" style="rounded=0;whiteSpace=wrap;html=1;fillColor=#fad9d5;strokeColor=#ae4132;" parent="1" vertex="1">
          <mxGeometry x="447" y="117.5" width="99" height="30" as="geometry" />
        </mxCell>
        <mxCell id="E29Z3xID2arAqu9Q_SNb-1" style="edgeStyle=orthogonalEdgeStyle;rounded=0;orthogonalLoop=1;jettySize=auto;html=1;exitX=1;exitY=0.5;exitDx=0;exitDy=0;entryX=-0.001;entryY=0.212;entryDx=0;entryDy=0;entryPerimeter=0;shape=link;fillColor=#f8cecc;strokeColor=#b85450;" edge="1" parent="1" source="Ofl7h55x0vACvlSZ26nz-21" target="Ofl7h55x0vACvlSZ26nz-32">
          <mxGeometry relative="1" as="geometry" />
        </mxCell>
      </root>
    </mxGraphModel>
  </diagram>
  <diagram name="第 2 页" id="c2FCSFB6tbEMGuxQp-f3">
    <mxGraphModel dx="1508" dy="818" grid="1" gridSize="10" guides="1" tooltips="1" connect="1" arrows="1" fold="1" page="1" pageScale="1" pageWidth="827" pageHeight="1169" math="0" shadow="0">
      <root>
        <mxCell id="0" />
        <mxCell id="1" parent="0" />
        <mxCell id="v9z6lBJK89Xw3rwl5iZ4-1" style="rounded=0;orthogonalLoop=1;jettySize=auto;html=1;exitX=0;exitY=0;exitDx=0;exitDy=0;entryX=1;entryY=1;entryDx=0;entryDy=0;endArrow=none;startFill=0;endFill=1;" edge="1" parent="1" source="v9z6lBJK89Xw3rwl5iZ4-8" target="v9z6lBJK89Xw3rwl5iZ4-11">
          <mxGeometry relative="1" as="geometry" />
        </mxCell>
        <mxCell id="v9z6lBJK89Xw3rwl5iZ4-4" style="rounded=0;orthogonalLoop=1;jettySize=auto;html=1;entryX=0;entryY=1;entryDx=0;entryDy=0;endArrow=none;startFill=0;exitX=1;exitY=0;exitDx=0;exitDy=0;" edge="1" parent="1" source="v9z6lBJK89Xw3rwl5iZ4-8" target="v9z6lBJK89Xw3rwl5iZ4-20">
          <mxGeometry relative="1" as="geometry" />
        </mxCell>
        <mxCell id="v9z6lBJK89Xw3rwl5iZ4-5" style="rounded=0;orthogonalLoop=1;jettySize=auto;html=1;exitX=1;exitY=0.5;exitDx=0;exitDy=0;entryX=0;entryY=0.5;entryDx=0;entryDy=0;endArrow=none;startFill=0;" edge="1" parent="1" source="v9z6lBJK89Xw3rwl5iZ4-8" target="v9z6lBJK89Xw3rwl5iZ4-21">
          <mxGeometry relative="1" as="geometry" />
        </mxCell>
        <mxCell id="v9z6lBJK89Xw3rwl5iZ4-6" style="rounded=0;orthogonalLoop=1;jettySize=auto;html=1;entryX=1;entryY=0;entryDx=0;entryDy=0;endArrow=none;startFill=0;" edge="1" parent="1" source="v9z6lBJK89Xw3rwl5iZ4-8" target="v9z6lBJK89Xw3rwl5iZ4-23">
          <mxGeometry relative="1" as="geometry" />
        </mxCell>
        <mxCell id="v9z6lBJK89Xw3rwl5iZ4-7" style="rounded=0;orthogonalLoop=1;jettySize=auto;html=1;entryX=0;entryY=0;entryDx=0;entryDy=0;endArrow=none;startFill=0;exitX=1;exitY=1;exitDx=0;exitDy=0;" edge="1" parent="1" source="v9z6lBJK89Xw3rwl5iZ4-8" target="v9z6lBJK89Xw3rwl5iZ4-22">
          <mxGeometry relative="1" as="geometry" />
        </mxCell>
        <mxCell id="v9z6lBJK89Xw3rwl5iZ4-8" value="Server" style="ellipse;whiteSpace=wrap;html=1;fillColor=#dae8fc;strokeColor=#6c8ebf;" vertex="1" parent="1">
          <mxGeometry x="300" y="250" width="90" height="50" as="geometry" />
        </mxCell>
        <mxCell id="v9z6lBJK89Xw3rwl5iZ4-27" style="rounded=0;orthogonalLoop=1;jettySize=auto;html=1;exitX=0;exitY=0;exitDx=0;exitDy=0;entryX=1;entryY=0.5;entryDx=0;entryDy=0;endArrow=none;startFill=0;" edge="1" parent="1" source="v9z6lBJK89Xw3rwl5iZ4-11" target="v9z6lBJK89Xw3rwl5iZ4-24">
          <mxGeometry relative="1" as="geometry" />
        </mxCell>
        <mxCell id="v9z6lBJK89Xw3rwl5iZ4-29" style="edgeStyle=orthogonalEdgeStyle;rounded=0;orthogonalLoop=1;jettySize=auto;html=1;entryX=1;entryY=0.5;entryDx=0;entryDy=0;endArrow=none;startFill=0;" edge="1" parent="1" source="v9z6lBJK89Xw3rwl5iZ4-11" target="v9z6lBJK89Xw3rwl5iZ4-25">
          <mxGeometry relative="1" as="geometry" />
        </mxCell>
        <mxCell id="v9z6lBJK89Xw3rwl5iZ4-30" style="rounded=0;orthogonalLoop=1;jettySize=auto;html=1;exitX=0;exitY=1;exitDx=0;exitDy=0;entryX=1;entryY=0.5;entryDx=0;entryDy=0;endArrow=none;startFill=0;" edge="1" parent="1" source="v9z6lBJK89Xw3rwl5iZ4-11" target="v9z6lBJK89Xw3rwl5iZ4-26">
          <mxGeometry relative="1" as="geometry" />
        </mxCell>
        <mxCell id="v9z6lBJK89Xw3rwl5iZ4-11" value="Broker" style="ellipse;whiteSpace=wrap;html=1;fillColor=#ffe6cc;strokeColor=#d79b00;" vertex="1" parent="1">
          <mxGeometry x="180" y="150" width="90" height="50" as="geometry" />
        </mxCell>
        <mxCell id="v9z6lBJK89Xw3rwl5iZ4-20" value="Backend" style="ellipse;whiteSpace=wrap;html=1;fillColor=#f8cecc;strokeColor=#b85450;" vertex="1" parent="1">
          <mxGeometry x="400" y="150" width="90" height="50" as="geometry" />
        </mxCell>
        <mxCell id="v9z6lBJK89Xw3rwl5iZ4-21" value="Config" style="ellipse;whiteSpace=wrap;html=1;fillColor=#f5f5f5;strokeColor=#666666;fontColor=#333333;" vertex="1" parent="1">
          <mxGeometry x="490" y="250" width="90" height="50" as="geometry" />
        </mxCell>
        <mxCell id="v9z6lBJK89Xw3rwl5iZ4-22" value="Lock" style="ellipse;whiteSpace=wrap;html=1;fillColor=#d5e8d4;strokeColor=#82b366;" vertex="1" parent="1">
          <mxGeometry x="420" y="350" width="90" height="50" as="geometry" />
        </mxCell>
        <mxCell id="v9z6lBJK89Xw3rwl5iZ4-23" value="Scheduler" style="ellipse;whiteSpace=wrap;html=1;fillColor=#fff2cc;strokeColor=#d6b656;" vertex="1" parent="1">
          <mxGeometry x="170" y="350" width="90" height="50" as="geometry" />
        </mxCell>
        <mxCell id="v9z6lBJK89Xw3rwl5iZ4-24" value="Worker" style="ellipse;whiteSpace=wrap;html=1;fillColor=#e1d5e7;strokeColor=#9673a6;" vertex="1" parent="1">
          <mxGeometry x="80" y="105" width="70" height="40" as="geometry" />
        </mxCell>
        <mxCell id="v9z6lBJK89Xw3rwl5iZ4-25" value="Worker" style="ellipse;whiteSpace=wrap;html=1;fillColor=#e1d5e7;strokeColor=#9673a6;" vertex="1" parent="1">
          <mxGeometry x="80" y="155" width="70" height="40" as="geometry" />
        </mxCell>
        <mxCell id="v9z6lBJK89Xw3rwl5iZ4-26" value="Worker" style="ellipse;whiteSpace=wrap;html=1;fillColor=#e1d5e7;strokeColor=#9673a6;" vertex="1" parent="1">
          <mxGeometry x="80" y="205" width="70" height="40" as="geometry" />
        </mxCell>
      </root>
    </mxGraphModel>
  </diagram>
  <diagram name="第 3 页" id="TGx5Iorhx-hYgWslnq6l">
    <mxGraphModel dx="1810" dy="982" grid="1" gridSize="10" guides="1" tooltips="1" connect="1" arrows="1" fold="1" page="1" pageScale="1" pageWidth="827" pageHeight="1169" math="0" shadow="0">
      <root>
        <mxCell id="0" />
        <mxCell id="1" parent="0" />
        <mxCell id="ZCvvphS9IshZdOJKjDp5-1" style="rounded=0;orthogonalLoop=1;jettySize=auto;html=1;exitX=0;exitY=0;exitDx=0;exitDy=0;entryX=1;entryY=1;entryDx=0;entryDy=0;endArrow=none;startFill=0;endFill=1;" edge="1" parent="1" source="ZCvvphS9IshZdOJKjDp5-6" target="ZCvvphS9IshZdOJKjDp5-10">
          <mxGeometry relative="1" as="geometry" />
        </mxCell>
        <mxCell id="ZCvvphS9IshZdOJKjDp5-2" style="rounded=0;orthogonalLoop=1;jettySize=auto;html=1;entryX=0;entryY=1;entryDx=0;entryDy=0;endArrow=none;startFill=0;exitX=1;exitY=0;exitDx=0;exitDy=0;" edge="1" parent="1" source="ZCvvphS9IshZdOJKjDp5-6" target="ZCvvphS9IshZdOJKjDp5-11">
          <mxGeometry relative="1" as="geometry" />
        </mxCell>
        <mxCell id="ZCvvphS9IshZdOJKjDp5-3" style="rounded=0;orthogonalLoop=1;jettySize=auto;html=1;exitX=1;exitY=0.5;exitDx=0;exitDy=0;entryX=0;entryY=0.5;entryDx=0;entryDy=0;endArrow=none;startFill=0;" edge="1" parent="1" source="ZCvvphS9IshZdOJKjDp5-6" target="ZCvvphS9IshZdOJKjDp5-12">
          <mxGeometry relative="1" as="geometry" />
        </mxCell>
        <mxCell id="ZCvvphS9IshZdOJKjDp5-4" style="rounded=0;orthogonalLoop=1;jettySize=auto;html=1;entryX=1;entryY=0;entryDx=0;entryDy=0;endArrow=none;startFill=0;" edge="1" parent="1" source="ZCvvphS9IshZdOJKjDp5-6" target="ZCvvphS9IshZdOJKjDp5-14">
          <mxGeometry relative="1" as="geometry" />
        </mxCell>
        <mxCell id="ZCvvphS9IshZdOJKjDp5-5" style="rounded=0;orthogonalLoop=1;jettySize=auto;html=1;entryX=0;entryY=0;entryDx=0;entryDy=0;endArrow=none;startFill=0;exitX=1;exitY=1;exitDx=0;exitDy=0;" edge="1" parent="1" source="ZCvvphS9IshZdOJKjDp5-6" target="ZCvvphS9IshZdOJKjDp5-13">
          <mxGeometry relative="1" as="geometry" />
        </mxCell>
        <mxCell id="ZCvvphS9IshZdOJKjDp5-6" value="Server" style="ellipse;whiteSpace=wrap;html=1;fillColor=#dae8fc;strokeColor=#6c8ebf;" vertex="1" parent="1">
          <mxGeometry x="300" y="250" width="90" height="50" as="geometry" />
        </mxCell>
        <mxCell id="ZCvvphS9IshZdOJKjDp5-7" style="rounded=0;orthogonalLoop=1;jettySize=auto;html=1;exitX=0;exitY=0;exitDx=0;exitDy=0;entryX=1;entryY=0.5;entryDx=0;entryDy=0;endArrow=none;startFill=0;" edge="1" parent="1" source="ZCvvphS9IshZdOJKjDp5-10" target="ZCvvphS9IshZdOJKjDp5-15">
          <mxGeometry relative="1" as="geometry" />
        </mxCell>
        <mxCell id="ZCvvphS9IshZdOJKjDp5-8" style="edgeStyle=orthogonalEdgeStyle;rounded=0;orthogonalLoop=1;jettySize=auto;html=1;entryX=1;entryY=0.5;entryDx=0;entryDy=0;endArrow=none;startFill=0;" edge="1" parent="1" source="ZCvvphS9IshZdOJKjDp5-10" target="ZCvvphS9IshZdOJKjDp5-16">
          <mxGeometry relative="1" as="geometry" />
        </mxCell>
        <mxCell id="ZCvvphS9IshZdOJKjDp5-9" style="rounded=0;orthogonalLoop=1;jettySize=auto;html=1;exitX=0;exitY=1;exitDx=0;exitDy=0;entryX=1;entryY=0.5;entryDx=0;entryDy=0;endArrow=none;startFill=0;" edge="1" parent="1" source="ZCvvphS9IshZdOJKjDp5-10" target="ZCvvphS9IshZdOJKjDp5-17">
          <mxGeometry relative="1" as="geometry" />
        </mxCell>
        <mxCell id="ZCvvphS9IshZdOJKjDp5-10" value="Broker" style="ellipse;whiteSpace=wrap;html=1;fillColor=#ffe6cc;strokeColor=#d79b00;" vertex="1" parent="1">
          <mxGeometry x="180" y="150" width="90" height="50" as="geometry" />
        </mxCell>
        <mxCell id="ZCvvphS9IshZdOJKjDp5-11" value="Backend" style="ellipse;whiteSpace=wrap;html=1;fillColor=#f8cecc;strokeColor=#b85450;" vertex="1" parent="1">
          <mxGeometry x="400" y="150" width="90" height="50" as="geometry" />
        </mxCell>
        <mxCell id="ZCvvphS9IshZdOJKjDp5-12" value="Config" style="ellipse;whiteSpace=wrap;html=1;fillColor=#f5f5f5;strokeColor=#666666;fontColor=#333333;" vertex="1" parent="1">
          <mxGeometry x="490" y="250" width="90" height="50" as="geometry" />
        </mxCell>
        <mxCell id="ZCvvphS9IshZdOJKjDp5-13" value="Lock" style="ellipse;whiteSpace=wrap;html=1;fillColor=#d5e8d4;strokeColor=#82b366;" vertex="1" parent="1">
          <mxGeometry x="420" y="350" width="90" height="50" as="geometry" />
        </mxCell>
        <mxCell id="ZCvvphS9IshZdOJKjDp5-14" value="Scheduler" style="ellipse;whiteSpace=wrap;html=1;fillColor=#fff2cc;strokeColor=#d6b656;" vertex="1" parent="1">
          <mxGeometry x="170" y="350" width="90" height="50" as="geometry" />
        </mxCell>
        <mxCell id="ZCvvphS9IshZdOJKjDp5-15" value="Worker" style="ellipse;whiteSpace=wrap;html=1;fillColor=#e1d5e7;strokeColor=#9673a6;" vertex="1" parent="1">
          <mxGeometry x="80" y="105" width="70" height="40" as="geometry" />
        </mxCell>
        <mxCell id="ZCvvphS9IshZdOJKjDp5-16" value="Worker" style="ellipse;whiteSpace=wrap;html=1;fillColor=#e1d5e7;strokeColor=#9673a6;" vertex="1" parent="1">
          <mxGeometry x="80" y="155" width="70" height="40" as="geometry" />
        </mxCell>
        <mxCell id="ZCvvphS9IshZdOJKjDp5-17" value="Worker" style="ellipse;whiteSpace=wrap;html=1;fillColor=#e1d5e7;strokeColor=#9673a6;" vertex="1" parent="1">
          <mxGeometry x="80" y="205" width="70" height="40" as="geometry" />
        </mxCell>
      </root>
    </mxGraphModel>
  </diagram>
</mxfile>
